<?xml version="1.0" encoding="UTF-8" standalone="no"?>
<!DOCTYPE svg PUBLIC "-//W3C//DTD SVG 1.1//EN"
 "http://www.w3.org/Graphics/SVG/1.1/DTD/svg11.dtd">
<!-- Generated by graphviz version 2.43.0 (0)
 -->
<!-- Title: G Pages: 1 -->
<svg width="918pt" height="222pt"
 viewBox="0.00 0.00 918.00 222.00" xmlns="http://www.w3.org/2000/svg" xmlns:xlink="http://www.w3.org/1999/xlink">
<g id="graph0" class="graph" transform="scale(1 1) rotate(0) translate(4 218)">
<title>G</title>
<polygon fill="white" stroke="transparent" points="-4,4 -4,-218 914,-218 914,4 -4,4"/>
<g id="clust1" class="cluster">
<title>cluster_factory_method</title>
<polygon fill="none" stroke="black" stroke-dasharray="5,2" points="8,-8 8,-189.5 338,-189.5 338,-8 8,-8"/>
<text text-anchor="middle" x="173" y="-174.3" font-family="Times,serif" font-size="14.00">Factory Method</text>
</g>
<g id="clust2" class="cluster">
<title>cluster_abstract_factory</title>
<polygon fill="none" stroke="black" stroke-dasharray="5,2" points="346,-8 346,-206 902,-206 902,-8 346,-8"/>
<text text-anchor="middle" x="624" y="-190.8" font-family="Times,serif" font-size="14.00">Abstract Factory</text>
</g>
<!-- PizzaStore -->
<g id="node1" class="node">
<title>PizzaStore</title>
<path fill="none" stroke="black" d="M137.5,-122C137.5,-122 206.5,-122 206.5,-122 212.5,-122 218.5,-128 218.5,-134 218.5,-134 218.5,-146 218.5,-146 218.5,-152 212.5,-158 206.5,-158 206.5,-158 137.5,-158 137.5,-158 131.5,-158 125.5,-152 125.5,-146 125.5,-146 125.5,-134 125.5,-134 125.5,-128 131.5,-122 137.5,-122"/>
<text text-anchor="middle" x="172" y="-139.8" font-family="Times,serif" font-size="14.00">PizzaStore</text>
<polyline fill="none" stroke="black" points="125.5,-129 218.5,-129 "/>
</g>
<!-- NYPizzaStore -->
<g id="node2" class="node">
<title>NYPizzaStore</title>
<path fill="none" stroke="black" d="M150,-69C150,-69 28,-69 28,-69 22,-69 16,-63 16,-57 16,-57 16,-28 16,-28 16,-22 22,-16 28,-16 28,-16 150,-16 150,-16 156,-16 162,-22 162,-28 162,-28 162,-57 162,-57 162,-63 156,-69 150,-69"/>
<text text-anchor="middle" x="89" y="-53.8" font-family="Times,serif" font-size="14.00">NYPizzaStore</text>
<text text-anchor="middle" x="89" y="-38.8" font-family="Times,serif" font-size="14.00">ThinCrustDough</text>
<text text-anchor="middle" x="89" y="-23.8" font-family="Times,serif" font-size="14.00">MozzarellaCheese</text>
</g>
<!-- PizzaStore&#45;&gt;NYPizzaStore -->
<g id="edge1" class="edge">
<title>PizzaStore&#45;&gt;NYPizzaStore</title>
<path fill="none" stroke="black" d="M157.16,-121.93C146.28,-109.41 131.16,-92.01 117.93,-76.78"/>
<polygon fill="black" stroke="black" points="120.41,-74.31 111.21,-69.05 115.13,-78.9 120.41,-74.31"/>
</g>
<!-- ChicagoPizzaStore -->
<g id="node3" class="node">
<title>ChicagoPizzaStore</title>
<path fill="none" stroke="black" d="M318,-69C318,-69 192,-69 192,-69 186,-69 180,-63 180,-57 180,-57 180,-28 180,-28 180,-22 186,-16 192,-16 192,-16 318,-16 318,-16 324,-16 330,-22 330,-28 330,-28 330,-57 330,-57 330,-63 324,-69 318,-69"/>
<text text-anchor="middle" x="255" y="-53.8" font-family="Times,serif" font-size="14.00">ChicagoPizzaStore</text>
<text text-anchor="middle" x="255" y="-38.8" font-family="Times,serif" font-size="14.00">ThickCrustDough</text>
<text text-anchor="middle" x="255" y="-23.8" font-family="Times,serif" font-size="14.00">MozzarellaCheese</text>
</g>
<!-- PizzaStore&#45;&gt;ChicagoPizzaStore -->
<g id="edge2" class="edge">
<title>PizzaStore&#45;&gt;ChicagoPizzaStore</title>
<path fill="none" stroke="black" d="M186.84,-121.93C197.72,-109.41 212.84,-92.01 226.07,-76.78"/>
<polygon fill="black" stroke="black" points="228.87,-78.9 232.79,-69.05 223.59,-74.31 228.87,-78.9"/>
</g>
<!-- IngredientFactory -->
<g id="node4" class="node">
<title>IngredientFactory</title>
<path fill="none" stroke="black" d="M561,-105.5C561,-105.5 683,-105.5 683,-105.5 689,-105.5 695,-111.5 695,-117.5 695,-117.5 695,-162.5 695,-162.5 695,-168.5 689,-174.5 683,-174.5 683,-174.5 561,-174.5 561,-174.5 555,-174.5 549,-168.5 549,-162.5 549,-162.5 549,-117.5 549,-117.5 549,-111.5 555,-105.5 561,-105.5"/>
<text text-anchor="middle" x="622" y="-159.3" font-family="Times,serif" font-size="14.00">IngredientFactory</text>
<polyline fill="none" stroke="black" points="549,-151.5 695,-151.5 "/>
<text text-anchor="middle" x="622" y="-136.3" font-family="Times,serif" font-size="14.00">create_dough()</text>
<polyline fill="none" stroke="black" points="549,-128.5 695,-128.5 "/>
<text text-anchor="middle" x="622" y="-113.3" font-family="Times,serif" font-size="14.00">create_topping()</text>
</g>
<!-- NyIngredientFactory -->
<g id="node5" class="node">
<title>NyIngredientFactory</title>
<path fill="none" stroke="black" d="M599.5,-69C599.5,-69 366.5,-69 366.5,-69 360.5,-69 354.5,-63 354.5,-57 354.5,-57 354.5,-28 354.5,-28 354.5,-22 360.5,-16 366.5,-16 366.5,-16 599.5,-16 599.5,-16 605.5,-16 611.5,-22 611.5,-28 611.5,-28 611.5,-57 611.5,-57 611.5,-63 605.5,-69 599.5,-69"/>
<text text-anchor="middle" x="483" y="-53.8" font-family="Times,serif" font-size="14.00">NyIngredientFactory</text>
<text text-anchor="middle" x="483" y="-38.8" font-family="Times,serif" font-size="14.00">create_dough()&#45;&gt;ThinCrustDough</text>
<text text-anchor="middle" x="483" y="-23.8" font-family="Times,serif" font-size="14.00">create_topping()&#45;&gt;Bacon</text>
</g>
<!-- IngredientFactory&#45;&gt;NyIngredientFactory -->
<g id="edge3" class="edge">
<title>IngredientFactory&#45;&gt;NyIngredientFactory</title>
<path fill="none" stroke="black" d="M572.99,-105.33C558.62,-95.46 542.97,-84.7 528.81,-74.97"/>
<polygon fill="black" stroke="black" points="530.43,-71.84 520.21,-69.06 526.47,-77.61 530.43,-71.84"/>
</g>
<!-- ChicagoIngredientFactory -->
<g id="node6" class="node">
<title>ChicagoIngredientFactory</title>
<path fill="none" stroke="black" d="M882,-69C882,-69 642,-69 642,-69 636,-69 630,-63 630,-57 630,-57 630,-28 630,-28 630,-22 636,-16 642,-16 642,-16 882,-16 882,-16 888,-16 894,-22 894,-28 894,-28 894,-57 894,-57 894,-63 888,-69 882,-69"/>
<text text-anchor="middle" x="762" y="-53.8" font-family="Times,serif" font-size="14.00">ChicagoIngredientFactory</text>
<text text-anchor="middle" x="762" y="-38.8" font-family="Times,serif" font-size="14.00">create_dough()&#45;&gt;ThickCrustDough</text>
<text text-anchor="middle" x="762" y="-23.8" font-family="Times,serif" font-size="14.00">create_topping()&#45;&gt;Pepperoni</text>
</g>
<!-- IngredientFactory&#45;&gt;ChicagoIngredientFactory -->
<g id="edge4" class="edge">
<title>IngredientFactory&#45;&gt;ChicagoIngredientFactory</title>
<path fill="none" stroke="black" d="M671.36,-105.33C685.83,-95.46 701.6,-84.7 715.86,-74.97"/>
<polygon fill="black" stroke="black" points="718.24,-77.59 724.52,-69.06 714.29,-71.81 718.24,-77.59"/>
</g>
</g>
</svg>
