<?xml version="1.0" encoding="UTF-8" standalone="no"?>
<!DOCTYPE svg PUBLIC "-//W3C//DTD SVG 1.1//EN"
 "http://www.w3.org/Graphics/SVG/1.1/DTD/svg11.dtd">
<!-- Generated by graphviz version 2.43.0 (0)
 -->
<!-- Title: G Pages: 1 -->
<svg width="642pt" height="222pt"
 viewBox="0.00 0.00 642.00 222.00" xmlns="http://www.w3.org/2000/svg" xmlns:xlink="http://www.w3.org/1999/xlink">
<g id="graph0" class="graph" transform="scale(1 1) rotate(0) translate(4 218)">
<title>G</title>
<polygon fill="white" stroke="transparent" points="-4,4 -4,-218 638,-218 638,4 -4,4"/>
<g id="clust1" class="cluster">
<title>cluster_factory_method</title>
<polygon fill="none" stroke="black" stroke-dasharray="5,2" points="8,-8 8,-189.5 338,-189.5 338,-8 8,-8"/>
<text text-anchor="middle" x="173" y="-174.3" font-family="Times,serif" font-size="14.00">Factory Method</text>
</g>
<g id="clust2" class="cluster">
<title>cluster_abstract_factory</title>
<polygon fill="none" stroke="black" stroke-dasharray="5,2" points="346,-8 346,-206 626,-206 626,-8 346,-8"/>
<text text-anchor="middle" x="486" y="-190.8" font-family="Times,serif" font-size="14.00">Abstract Factory</text>
</g>
<!-- PizzaStore -->
<g id="node1" class="node">
<title>PizzaStore</title>
<path fill="none" stroke="black" d="M137.5,-122C137.5,-122 206.5,-122 206.5,-122 212.5,-122 218.5,-128 218.5,-134 218.5,-134 218.5,-146 218.5,-146 218.5,-152 212.5,-158 206.5,-158 206.5,-158 137.5,-158 137.5,-158 131.5,-158 125.5,-152 125.5,-146 125.5,-146 125.5,-134 125.5,-134 125.5,-128 131.5,-122 137.5,-122"/>
<text text-anchor="middle" x="172" y="-139.8" font-family="Times,serif" font-size="14.00">PizzaStore</text>
<polyline fill="none" stroke="black" points="125.5,-129 218.5,-129 "/>
</g>
<!-- NYPizzaStore -->
<g id="node2" class="node">
<title>NYPizzaStore</title>
<path fill="none" stroke="black" d="M150,-69C150,-69 28,-69 28,-69 22,-69 16,-63 16,-57 16,-57 16,-28 16,-28 16,-22 22,-16 28,-16 28,-16 150,-16 150,-16 156,-16 162,-22 162,-28 162,-28 162,-57 162,-57 162,-63 156,-69 150,-69"/>
<text text-anchor="middle" x="89" y="-53.8" font-family="Times,serif" font-size="14.00">NYPizzaStore</text>
<text text-anchor="middle" x="89" y="-38.8" font-family="Times,serif" font-size="14.00">ThinCrustDough</text>
<text text-anchor="middle" x="89" y="-23.8" font-family="Times,serif" font-size="14.00">MozzarellaCheese</text>
</g>
<!-- PizzaStore&#45;&gt;NYPizzaStore -->
<g id="edge1" class="edge">
<title>PizzaStore&#45;&gt;NYPizzaStore</title>
<path fill="none" stroke="black" d="M157.16,-121.93C146.28,-109.41 131.16,-92.01 117.93,-76.78"/>
<polygon fill="black" stroke="black" points="120.41,-74.31 111.21,-69.05 115.13,-78.9 120.41,-74.31"/>
</g>
<!-- ChicagoPizzaStore -->
<g id="node3" class="node">
<title>ChicagoPizzaStore</title>
<path fill="none" stroke="black" d="M318,-69C318,-69 192,-69 192,-69 186,-69 180,-63 180,-57 180,-57 180,-28 180,-28 180,-22 186,-16 192,-16 192,-16 318,-16 318,-16 324,-16 330,-22 330,-28 330,-28 330,-57 330,-57 330,-63 324,-69 318,-69"/>
<text text-anchor="middle" x="255" y="-53.8" font-family="Times,serif" font-size="14.00">ChicagoPizzaStore</text>
<text text-anchor="middle" x="255" y="-38.8" font-family="Times,serif" font-size="14.00">ThickCrustDough</text>
<text text-anchor="middle" x="255" y="-23.8" font-family="Times,serif" font-size="14.00">MozzarellaCheese</text>
</g>
<!-- PizzaStore&#45;&gt;ChicagoPizzaStore -->
<g id="edge2" class="edge">
<title>PizzaStore&#45;&gt;ChicagoPizzaStore</title>
<path fill="none" stroke="black" d="M186.84,-121.93C197.72,-109.41 212.84,-92.01 226.07,-76.78"/>
<polygon fill="black" stroke="black" points="228.87,-78.9 232.79,-69.05 223.59,-74.31 228.87,-78.9"/>
</g>
<!-- IngredientFactory -->
<g id="node4" class="node">
<title>IngredientFactory</title>
<path fill="none" stroke="black" d="M425,-105.5C425,-105.5 547,-105.5 547,-105.5 553,-105.5 559,-111.5 559,-117.5 559,-117.5 559,-162.5 559,-162.5 559,-168.5 553,-174.5 547,-174.5 547,-174.5 425,-174.5 425,-174.5 419,-174.5 413,-168.5 413,-162.5 413,-162.5 413,-117.5 413,-117.5 413,-111.5 419,-105.5 425,-105.5"/>
<text text-anchor="middle" x="486" y="-159.3" font-family="Times,serif" font-size="14.00">IngredientFactory</text>
<polyline fill="none" stroke="black" points="413,-151.5 559,-151.5 "/>
<text text-anchor="middle" x="486" y="-136.3" font-family="Times,serif" font-size="14.00">create_dough()</text>
<polyline fill="none" stroke="black" points="413,-128.5 559,-128.5 "/>
<text text-anchor="middle" x="486" y="-113.3" font-family="Times,serif" font-size="14.00">create_topping()</text>
</g>
<!-- ChicagoIngredientFactory -->
<g id="node5" class="node">
<title>ChicagoIngredientFactory</title>
<path fill="none" stroke="black" d="M606,-69C606,-69 366,-69 366,-69 360,-69 354,-63 354,-57 354,-57 354,-28 354,-28 354,-22 360,-16 366,-16 366,-16 606,-16 606,-16 612,-16 618,-22 618,-28 618,-28 618,-57 618,-57 618,-63 612,-69 606,-69"/>
<text text-anchor="middle" x="486" y="-53.8" font-family="Times,serif" font-size="14.00">ChicagoIngredientFactory</text>
<text text-anchor="middle" x="486" y="-38.8" font-family="Times,serif" font-size="14.00">create_dough()&#45;&gt;ThickCrustDough</text>
<text text-anchor="middle" x="486" y="-23.8" font-family="Times,serif" font-size="14.00">create_topping()&#45;&gt;Pepperoni</text>
</g>
<!-- IngredientFactory&#45;&gt;ChicagoIngredientFactory -->
<g id="edge3" class="edge">
<title>IngredientFactory&#45;&gt;ChicagoIngredientFactory</title>
<path fill="none" stroke="black" d="M486,-105.33C486,-96.85 486,-87.73 486,-79.16"/>
<polygon fill="black" stroke="black" points="489.5,-79.06 486,-69.06 482.5,-79.06 489.5,-79.06"/>
</g>
</g>
</svg>
